<svg width="111" height="90" viewBox="0 0 111 90" fill="none" xmlns="http://www.w3.org/2000/svg">
<g clip-path="url(#clip0_1_213)">
<path d="M11.8853 50.1667C11.8839 39.64 19.5047 30.6603 29.8915 28.9497C35.642 18.7056 47.0608 13.0069 58.704 14.5704C70.3473 16.1338 79.8583 24.6429 82.7027 36.0412C91.9623 37.4639 98.5626 45.7801 97.8458 55.121C97.1289 64.4619 89.3369 71.6735 79.9686 71.6667H33.3853C21.5111 71.6667 11.8853 62.0408 11.8853 50.1667Z" fill="#828282"/>
</g>
<g clip-path="url(#clip1_1_213)">
<path d="M59.8853 44.75C59.8845 38.5074 64.4038 33.1823 70.5634 32.1679C73.9736 26.0929 80.7451 22.7134 87.6499 23.6406C94.5546 24.5677 100.195 29.6138 101.882 36.3732C107.373 37.217 111.287 42.1487 110.862 47.688C110.437 53.2274 105.816 57.504 100.26 57.5H72.6353C65.5936 57.5 59.8853 51.7916 59.8853 44.75Z" fill="#4F4F4F"/>
</g>
<g clip-path="url(#clip2_1_213)">
<path d="M0.885254 64.75C0.884475 58.5074 5.40377 53.1823 11.5634 52.1679C14.9736 46.0929 21.7451 42.7134 28.6499 43.6406C35.5546 44.5677 41.1948 49.6138 42.8816 56.3733C48.3728 57.217 52.287 62.1487 51.8618 67.688C51.4367 73.2274 46.8159 77.504 41.2603 77.5H13.6353C6.59362 77.5 0.885254 71.7916 0.885254 64.75Z" fill="#4F4F4F"/>
</g>
<path d="M71.8853 54.5C71.8853 55.8807 70.766 57 69.3853 57C68.0045 57 66.8853 55.8807 66.8853 54.5C66.8853 53.1193 68.0045 52 69.3853 52H71.8853V54.5Z" fill="url(#paint0_linear_1_213)"/>
<path d="M106.885 54.5C106.885 55.8807 105.766 57 104.385 57C103.005 57 101.885 55.8807 101.885 54.5C101.885 53.1193 103.005 52 104.385 52H106.885V54.5Z" fill="url(#paint1_linear_1_213)"/>
<path d="M80.8853 59.5C80.8853 60.8807 79.766 62 78.3853 62C77.0045 62 75.8853 60.8807 75.8853 59.5C75.8853 58.1193 77.0045 57 78.3853 57H80.8853V59.5Z" fill="url(#paint2_linear_1_213)"/>
<path d="M71.8853 64.5C71.8853 65.8807 70.766 67 69.3853 67C68.0045 67 66.8853 65.8807 66.8853 64.5C66.8853 63.1193 68.0045 62 69.3853 62H71.8853V64.5Z" fill="url(#paint3_linear_1_213)"/>
<path d="M89.8853 64.5C89.8853 65.8807 88.766 67 87.3853 67C86.0045 67 84.8853 65.8807 84.8853 64.5C84.8853 63.1193 86.0045 62 87.3853 62H89.8853V64.5Z" fill="url(#paint4_linear_1_213)"/>
<path d="M80.8853 69.5C80.8853 70.8807 79.766 72 78.3853 72C77.0045 72 75.8853 70.8807 75.8853 69.5C75.8853 68.1193 77.0045 67 78.3853 67H80.8853V69.5Z" fill="url(#paint5_linear_1_213)"/>
<path d="M98.8853 59.5C98.8853 60.8807 97.766 62 96.3853 62C95.0045 62 93.8853 60.8807 93.8853 59.5C93.8853 58.1193 95.0045 57 96.3853 57H98.8853V59.5Z" fill="url(#paint6_linear_1_213)"/>
<path d="M89.8853 54.5C89.8853 55.8807 88.766 57 87.3853 57C86.0045 57 84.8853 55.8807 84.8853 54.5C84.8853 53.1193 86.0045 52 87.3853 52H89.8853V54.5Z" fill="url(#paint7_linear_1_213)"/>
<path d="M11.8853 72.5C11.8853 73.8807 10.766 75 9.38525 75C8.00454 75 6.88525 73.8807 6.88525 72.5C6.88525 71.1193 8.00454 70 9.38525 70H11.8853V72.5Z" fill="url(#paint8_linear_1_213)"/>
<path d="M46.8853 72.5C46.8853 73.8807 45.766 75 44.3853 75C43.0045 75 41.8853 73.8807 41.8853 72.5C41.8853 71.1193 43.0045 70 44.3853 70H46.8853V72.5Z" fill="url(#paint9_linear_1_213)"/>
<path d="M20.8853 77.5C20.8853 78.8807 19.766 80 18.3853 80C17.0045 80 15.8853 78.8807 15.8853 77.5C15.8853 76.1193 17.0045 75 18.3853 75H20.8853V77.5Z" fill="url(#paint10_linear_1_213)"/>
<path d="M11.8853 82.5C11.8853 83.8807 10.766 85 9.38525 85C8.00454 85 6.88525 83.8807 6.88525 82.5C6.88525 81.1193 8.00454 80 9.38525 80H11.8853V82.5Z" fill="url(#paint11_linear_1_213)"/>
<path d="M29.8853 82.5C29.8853 83.8807 28.766 85 27.3853 85C26.0045 85 24.8853 83.8807 24.8853 82.5C24.8853 81.1193 26.0045 80 27.3853 80H29.8853V82.5Z" fill="url(#paint12_linear_1_213)"/>
<path d="M20.8853 87.5C20.8853 88.8807 19.766 90 18.3853 90C17.0045 90 15.8853 88.8807 15.8853 87.5C15.8853 86.1193 17.0045 85 18.3853 85H20.8853V87.5Z" fill="url(#paint13_linear_1_213)"/>
<path d="M38.8853 77.5C38.8853 78.8807 37.766 80 36.3853 80C35.0045 80 33.8853 78.8807 33.8853 77.5C33.8853 76.1193 35.0045 75 36.3853 75H38.8853V77.5Z" fill="url(#paint14_linear_1_213)"/>
<path d="M29.8853 72.5C29.8853 73.8807 28.766 75 27.3853 75C26.0045 75 24.8853 73.8807 24.8853 72.5C24.8853 71.1193 26.0045 70 27.3853 70H29.8853V72.5Z" fill="url(#paint15_linear_1_213)"/>
<defs>
<linearGradient id="paint0_linear_1_213" x1="69.6978" y1="56.0625" x2="71.8853" y2="52" gradientUnits="userSpaceOnUse">
<stop stop-color="#00D1FF"/>
<stop offset="1" stop-color="#0066FF"/>
</linearGradient>
<linearGradient id="paint1_linear_1_213" x1="104.698" y1="56.0625" x2="106.885" y2="52" gradientUnits="userSpaceOnUse">
<stop stop-color="#00D1FF"/>
<stop offset="1" stop-color="#0066FF"/>
</linearGradient>
<linearGradient id="paint2_linear_1_213" x1="78.6978" y1="61.0625" x2="80.8853" y2="57" gradientUnits="userSpaceOnUse">
<stop stop-color="#00D1FF"/>
<stop offset="1" stop-color="#0066FF"/>
</linearGradient>
<linearGradient id="paint3_linear_1_213" x1="69.6978" y1="66.0625" x2="71.8853" y2="62" gradientUnits="userSpaceOnUse">
<stop stop-color="#00D1FF"/>
<stop offset="1" stop-color="#0066FF"/>
</linearGradient>
<linearGradient id="paint4_linear_1_213" x1="87.6978" y1="66.0625" x2="89.8853" y2="62" gradientUnits="userSpaceOnUse">
<stop stop-color="#00D1FF"/>
<stop offset="1" stop-color="#0066FF"/>
</linearGradient>
<linearGradient id="paint5_linear_1_213" x1="78.6978" y1="71.0625" x2="80.8853" y2="67" gradientUnits="userSpaceOnUse">
<stop stop-color="#00D1FF"/>
<stop offset="1" stop-color="#0066FF"/>
</linearGradient>
<linearGradient id="paint6_linear_1_213" x1="96.6978" y1="61.0625" x2="98.8853" y2="57" gradientUnits="userSpaceOnUse">
<stop stop-color="#00D1FF"/>
<stop offset="1" stop-color="#0066FF"/>
</linearGradient>
<linearGradient id="paint7_linear_1_213" x1="87.6978" y1="56.0625" x2="89.8853" y2="52" gradientUnits="userSpaceOnUse">
<stop stop-color="#00D1FF"/>
<stop offset="1" stop-color="#0066FF"/>
</linearGradient>
<linearGradient id="paint8_linear_1_213" x1="9.69775" y1="74.0625" x2="11.8853" y2="70" gradientUnits="userSpaceOnUse">
<stop stop-color="#00D1FF"/>
<stop offset="1" stop-color="#0066FF"/>
</linearGradient>
<linearGradient id="paint9_linear_1_213" x1="44.6978" y1="74.0625" x2="46.8853" y2="70" gradientUnits="userSpaceOnUse">
<stop stop-color="#00D1FF"/>
<stop offset="1" stop-color="#0066FF"/>
</linearGradient>
<linearGradient id="paint10_linear_1_213" x1="18.6978" y1="79.0625" x2="20.8853" y2="75" gradientUnits="userSpaceOnUse">
<stop stop-color="#00D1FF"/>
<stop offset="1" stop-color="#0066FF"/>
</linearGradient>
<linearGradient id="paint11_linear_1_213" x1="9.69775" y1="84.0625" x2="11.8853" y2="80" gradientUnits="userSpaceOnUse">
<stop stop-color="#00D1FF"/>
<stop offset="1" stop-color="#0066FF"/>
</linearGradient>
<linearGradient id="paint12_linear_1_213" x1="27.6978" y1="84.0625" x2="29.8853" y2="80" gradientUnits="userSpaceOnUse">
<stop stop-color="#00D1FF"/>
<stop offset="1" stop-color="#0066FF"/>
</linearGradient>
<linearGradient id="paint13_linear_1_213" x1="18.6978" y1="89.0625" x2="20.8853" y2="85" gradientUnits="userSpaceOnUse">
<stop stop-color="#00D1FF"/>
<stop offset="1" stop-color="#0066FF"/>
</linearGradient>
<linearGradient id="paint14_linear_1_213" x1="36.6978" y1="79.0625" x2="38.8853" y2="75" gradientUnits="userSpaceOnUse">
<stop stop-color="#00D1FF"/>
<stop offset="1" stop-color="#0066FF"/>
</linearGradient>
<linearGradient id="paint15_linear_1_213" x1="27.6978" y1="74.0625" x2="29.8853" y2="70" gradientUnits="userSpaceOnUse">
<stop stop-color="#00D1FF"/>
<stop offset="1" stop-color="#0066FF"/>
</linearGradient>
<clipPath id="clip0_1_213">
<rect width="86" height="86" fill="white" transform="translate(11.8853)"/>
</clipPath>
<clipPath id="clip1_1_213">
<rect width="51" height="51" fill="white" transform="translate(59.8853 15)"/>
</clipPath>
<clipPath id="clip2_1_213">
<rect width="51" height="51" fill="white" transform="translate(0.885254 35)"/>
</clipPath>
</defs>
</svg>
