<svg width="134" height="111" viewBox="0 0 134 111" fill="none" xmlns="http://www.w3.org/2000/svg">
<g clip-path="url(#clip0_1_252)">
<path d="M2.13233e-07 63C-0.00164944 49.7804 9.56862 38.5037 22.6125 36.3555C29.8341 23.4908 44.1739 16.3343 58.7957 18.2977C73.4175 20.2611 85.3615 30.9469 88.9335 45.261C100.562 47.0478 108.851 57.4913 107.95 69.2217C107.05 80.9521 97.2649 90.0086 85.5 90H27C12.0883 90 2.13233e-07 77.9117 2.13233e-07 63Z" fill="#4F4F4F"/>
</g>
<g clip-path="url(#clip1_1_252)">
<path d="M48 75.1667C47.9987 64.64 55.6195 55.6603 66.0063 53.9498C71.7568 43.7056 83.1755 38.0069 94.8188 39.5704C106.462 41.1338 115.973 49.6429 118.817 61.0412C128.077 62.464 134.677 70.7801 133.961 80.121C133.244 89.4619 125.452 96.6735 116.083 96.6667H69.5C57.6259 96.6667 48 87.0408 48 75.1667Z" fill="#828282"/>
</g>
<defs>
<clipPath id="clip0_1_252">
<rect width="108" height="108" fill="white"/>
</clipPath>
<clipPath id="clip1_1_252">
<rect width="86" height="86" fill="white" transform="translate(48 25)"/>
</clipPath>
</defs>
</svg>
