<svg width="81" height="67" viewBox="0 0 81 67" fill="none" xmlns="http://www.w3.org/2000/svg">
<path d="M20.343 17.9004L16.4426 21.8008L12.5422 17.9004" stroke="#0066FF" stroke-width="2" stroke-linecap="round"/>
<path d="M12.5423 42.9848L16.4427 39.0844L20.3431 42.9848" stroke="#0066FF" stroke-width="2" stroke-linecap="round"/>
<line x1="16.983" y1="18.5718" x2="16.983" y2="42.3133" stroke="#0066FF" stroke-width="2" stroke-linecap="round"/>
<path d="M28.0693 24.332H22.5533V18.816" stroke="#0066FF" stroke-width="2" stroke-linecap="round"/>
<path d="M4.81589 36.5534H10.3319V42.0694" stroke="#0066FF" stroke-width="2" stroke-linecap="round"/>
<line x1="25.2186" y1="22.4309" x2="8.43083" y2="39.2186" stroke="#0066FF" stroke-width="2" stroke-linecap="round"/>
<path d="M10.332 18.816V24.332H4.81595" stroke="#0066FF" stroke-width="2" stroke-linecap="round"/>
<path d="M22.5533 42.0693V36.5533H28.0693" stroke="#0066FF" stroke-width="2" stroke-linecap="round"/>
<line x1="8.43082" y1="21.6667" x2="25.2185" y2="38.4544" stroke="#0066FF" stroke-width="2" stroke-linecap="round"/>
<path d="M3.90042 26.5421L7.80084 30.4426L3.90042 34.343" stroke="#0066FF" stroke-width="2" stroke-linecap="round"/>
<path d="M28.9848 34.343L25.0844 30.4426L28.9848 26.5421" stroke="#0066FF" stroke-width="2" stroke-linecap="round"/>
<line x1="4.5719" y1="29.9022" x2="28.3133" y2="29.9022" stroke="#0066FF" stroke-width="2" stroke-linecap="round"/>
<path d="M50.3757 7.93295L42.4426 15.866L34.5096 7.93295" stroke="white" stroke-width="2" stroke-linecap="round"/>
<path d="M34.5096 58.9521L42.4426 51.0191L50.3757 58.9521" stroke="white" stroke-width="2" stroke-linecap="round"/>
<line x1="42.5077" y1="8.2648" x2="42.5077" y2="58.6203" stroke="white" stroke-width="2" stroke-linecap="round"/>
<path d="M66.0901 21.0142H54.8711V9.79521" stroke="white" stroke-width="2" stroke-linecap="round"/>
<path d="M18.7951 45.8713H30.0142V57.0903" stroke="white" stroke-width="2" stroke-linecap="round"/>
<line x1="60.292" y1="15.6854" x2="24.6853" y2="51.2921" stroke="white" stroke-width="2" stroke-linecap="round"/>
<path d="M30.0142 9.79524V21.0143H18.7951" stroke="white" stroke-width="2" stroke-linecap="round"/>
<path d="M54.8711 57.0901V45.8711H66.0901" stroke="white" stroke-width="2" stroke-linecap="round"/>
<line x1="24.6853" y1="15.5933" x2="60.292" y2="51.2" stroke="white" stroke-width="2" stroke-linecap="round"/>
<path d="M16.933 25.5095L24.8661 33.4426L16.933 41.3756" stroke="white" stroke-width="2" stroke-linecap="round"/>
<path d="M67.9522 41.3756L60.0192 33.4426L67.9522 25.5095" stroke="white" stroke-width="2" stroke-linecap="round"/>
<line x1="17.2649" y1="33.3775" x2="67.6204" y2="33.3775" stroke="white" stroke-width="2" stroke-linecap="round"/>
<path d="M68.343 36.9004L64.4426 40.8008L60.5422 36.9004" stroke="#00D1FF" stroke-width="2" stroke-linecap="round"/>
<path d="M60.5423 61.9848L64.4427 58.0844L68.3431 61.9848" stroke="#00D1FF" stroke-width="2" stroke-linecap="round"/>
<line x1="64.983" y1="37.5718" x2="64.983" y2="61.3133" stroke="#00D1FF" stroke-width="2" stroke-linecap="round"/>
<path d="M76.0693 43.332H70.5533V37.816" stroke="#00D1FF" stroke-width="2" stroke-linecap="round"/>
<path d="M52.8159 55.5534H58.3319V61.0694" stroke="#00D1FF" stroke-width="2" stroke-linecap="round"/>
<line x1="73.2186" y1="41.4309" x2="56.4308" y2="58.2186" stroke="#00D1FF" stroke-width="2" stroke-linecap="round"/>
<path d="M58.332 37.816V43.332H52.8159" stroke="#00D1FF" stroke-width="2" stroke-linecap="round"/>
<path d="M70.5533 61.0693V55.5533H76.0693" stroke="#00D1FF" stroke-width="2" stroke-linecap="round"/>
<line x1="56.4308" y1="40.6667" x2="73.2186" y2="57.4544" stroke="#00D1FF" stroke-width="2" stroke-linecap="round"/>
<path d="M51.9004 45.5421L55.8008 49.4426L51.9004 53.343" stroke="#00D1FF" stroke-width="2" stroke-linecap="round"/>
<path d="M76.9848 53.343L73.0844 49.4426L76.9848 45.5421" stroke="#00D1FF" stroke-width="2" stroke-linecap="round"/>
<line x1="52.5719" y1="48.9022" x2="76.3133" y2="48.9022" stroke="#00D1FF" stroke-width="2" stroke-linecap="round"/>
</svg>
